<svg width="150" height="50" viewBox="0 0 150 50" fill="none" xmlns="http://www.w3.org/2000/svg">
<path fill-rule="evenodd" clip-rule="evenodd" d="M4.38631e-05 -8.29697e-05L74.7769 49.9999L149.98 -8.29697e-05H4.38631e-05ZM74.7769 38.5837L27.4821 6.50281H122.072L74.7769 38.5837Z" fill="#EEEEEE"/>
<path d="M75.9897 33.5L37.9949 7.5L40.9945 7L116.484 7.5L75.9897 33.5Z" fill="#EEEEEE"/>
<path fill-rule="evenodd" clip-rule="evenodd" d="M17.9976 3L75.3265 43L132.982 3H17.9976ZM75.3265 31.552L39.0672 7.81214H111.586L75.3265 31.552Z" fill="#EEEEEE"/>
<path fill-rule="evenodd" clip-rule="evenodd" d="M60.5429 5.22C59.3564 5.22 58.6196 6.46521 59.2223 7.45182L74.1397 31.87C74.7395 32.8518 76.2155 32.8381 76.7956 31.8454L91.0644 7.42716C91.6409 6.44056 90.9025 5.22 89.7291 5.22H60.5429Z" fill="#EEEEEE"/>
</svg>
