<svg width="101" height="50" viewBox="0 0 101 50" fill="none" xmlns="http://www.w3.org/2000/svg">
<g opacity="0.3">
<path d="M27.6878 22.0384H17.2545V25.1342H24.6545C24.2878 29.4676 20.677 31.3276 17.267 31.3276C16.1867 31.3323 15.1163 31.1218 14.1183 30.7083C13.1202 30.2949 12.2146 29.6867 11.4542 28.9194C10.6937 28.1521 10.0938 27.2409 9.68938 26.2392C9.28495 25.2375 9.08412 24.1652 9.09863 23.0851C9.09863 18.3984 12.727 14.7901 17.277 14.7901C20.787 14.7901 22.8553 17.0276 22.8553 17.0276L25.022 14.7826C25.022 14.7826 22.2386 11.6851 17.1636 11.6851C10.7011 11.6851 5.70197 17.1392 5.70197 23.0301C5.70197 28.8026 10.4045 34.4317 17.327 34.4317C23.4161 34.4317 27.8736 30.2601 27.8736 24.0917C27.8736 22.7901 27.6845 22.0384 27.6845 22.0384H27.6878Z" fill="#FAFAFA"/>
<path d="M36.2353 19.7958C31.9536 19.7958 28.8853 23.1433 28.8853 27.0458C28.8853 31.0074 31.8603 34.4166 36.2853 34.4166C40.2903 34.4166 43.5711 31.3558 43.5711 27.1308C43.5711 22.2974 39.7545 19.7949 36.2353 19.7949V19.7958ZM36.277 22.6674C38.382 22.6674 40.377 24.3699 40.377 27.1124C40.377 29.7958 38.3903 31.5474 36.267 31.5474C33.9336 31.5474 32.1003 29.6791 32.1003 27.0908C32.1003 24.5574 33.917 22.6674 36.2836 22.6674H36.277Z" fill="#FAFAFA"/>
<path d="M52.2195 19.7958C47.9378 19.7958 44.8695 23.1433 44.8695 27.0458C44.8695 31.0074 47.8445 34.4166 52.2695 34.4166C56.2745 34.4166 59.5553 31.3558 59.5553 27.1308C59.5553 22.2974 55.7386 19.7949 52.2195 19.7949V19.7958ZM52.2611 22.6674C54.3661 22.6674 56.3611 24.3699 56.3611 27.1124C56.3611 29.7958 54.3745 31.5474 52.2511 31.5474C49.9178 31.5474 48.0845 29.6791 48.0845 27.0908C48.0845 24.5574 49.9011 22.6674 52.2678 22.6674H52.2611Z" fill="#FAFAFA"/>
<path d="M67.897 19.8042C63.967 19.8042 60.8786 23.2459 60.8786 27.1092C60.8786 31.5092 64.4595 34.4275 67.8286 34.4275C69.912 34.4275 71.0203 33.6 71.8286 32.6509V34.0925C71.8286 36.615 70.297 38.1259 67.9853 38.1259C65.752 38.1259 64.632 36.465 64.2353 35.5234L61.4253 36.69C62.422 38.7984 64.4286 40.9959 68.0086 40.9959C71.9253 40.9959 74.8936 38.535 74.8936 33.3734V20.2434H71.8403V21.4817C70.8986 20.465 69.6086 19.8042 67.8986 19.8042H67.897ZM68.1803 22.6709C70.107 22.6709 72.0853 24.3159 72.0853 27.125C72.0853 29.9809 70.1103 31.5542 68.1378 31.5542C66.0428 31.5542 64.0936 29.8542 64.0936 27.1517C64.0936 24.345 66.1186 22.6709 68.1803 22.6709Z" fill="#FAFAFA"/>
<path d="M88.5403 19.7866C84.8336 19.7866 81.7211 22.7366 81.7211 27.0866C81.7211 31.6916 85.1903 34.4225 88.8878 34.4225C91.9811 34.4225 93.8878 32.7308 95.0128 31.2141L92.4853 29.5325C91.8295 30.5491 90.7328 31.545 88.9036 31.545C86.8486 31.545 85.9036 30.42 85.3178 29.3283L95.1203 25.2616L94.6203 24.07C93.6736 21.7366 91.4636 19.7866 88.5403 19.7866ZM88.6678 22.5983C90.0036 22.5983 90.9645 23.3083 91.3728 24.16L84.8261 26.8958C84.5428 24.7775 86.5511 22.5983 88.6595 22.5983H88.6678Z" fill="#FAFAFA"/>
<path d="M77.0403 33.9894H80.2603V12.4419H77.0403V33.9894Z" fill="#FAFAFA"/>
</g>
</svg>
