<svg width="50" height="50" viewBox="0 0 50 50" fill="none" xmlns="http://www.w3.org/2000/svg">
<g opacity="0.3">
<path d="M22.8999 0.667286C24.1499 -0.0405266 25.7437 -0.0436516 26.9624 0.667286L45.6249 11.1876C46.7921 11.8438 47.5734 13.1454 47.5624 14.4907V35.5845C47.5703 36.986 46.7124 38.3157 45.4812 38.9595L26.9187 49.4313C26.2838 49.7822 25.5665 49.9566 24.8414 49.9366C24.1163 49.9165 23.4098 49.7027 22.7953 49.3173L17.2249 46.0985C16.8453 45.872 16.4187 45.6923 16.1499 45.3251C16.3874 45.0063 16.8093 44.9657 17.1531 44.8251C17.9281 44.5782 18.6374 44.2001 19.3499 43.8001C19.5296 43.6751 19.7499 43.722 19.9218 43.8345L24.6718 46.5813C25.0109 46.7766 25.3546 46.5188 25.6453 46.3548L43.8718 36.0688C44.0968 35.9595 44.2218 35.722 44.2031 35.4751V14.5845C44.2281 14.3032 44.0671 14.047 43.8124 13.9329L25.2968 3.50635C25.1901 3.43255 25.0635 3.39288 24.9338 3.3926C24.804 3.39232 24.6773 3.43144 24.5703 3.50478L6.08119 13.9532C5.83119 14.0673 5.65931 14.3204 5.69056 14.6017V35.4923C5.66869 35.7391 5.79994 35.972 6.0265 36.0782L10.9671 38.8673C11.8953 39.3673 13.0343 39.6485 14.0562 39.2813C14.5034 39.1128 14.8883 38.8116 15.1595 38.4181C15.4307 38.0246 15.5751 37.5576 15.5734 37.0798L15.5781 16.3142C15.5562 16.0063 15.8468 15.7517 16.1453 15.7829H18.5203C18.8328 15.7751 19.0781 16.1063 19.0359 16.4157L19.0312 37.3126C19.0328 39.1688 18.2703 41.1876 16.5531 42.0985C14.4374 43.1923 11.8218 42.9626 9.73119 41.911L4.41869 38.9735C3.16869 38.3485 2.32963 36.9985 2.33744 35.5985V14.5048C2.34264 13.8192 2.53111 13.1475 2.88332 12.5593C3.23554 11.9711 3.73867 11.4878 4.34056 11.1595L22.8999 0.667286ZM28.2812 15.2892C30.9796 15.1329 33.8687 15.186 36.2968 16.5157C38.1765 17.5345 39.2187 19.672 39.2531 21.7626C39.1999 22.0438 38.9062 22.2001 38.6374 22.1798C37.8562 22.1782 37.0718 22.1907 36.2874 22.1751C35.9546 22.1876 35.7624 21.8813 35.7203 21.5876C35.4953 20.5876 34.9499 19.5985 34.0093 19.1157C32.5656 18.3923 30.8906 18.4282 29.3156 18.4438C28.1656 18.5063 26.9296 18.6048 25.9562 19.2798C25.2062 19.7923 24.9812 20.8423 25.2484 21.6579C25.4984 22.2563 26.1906 22.4485 26.7546 22.6267C30.0078 23.4767 33.4531 23.4079 36.6453 24.5126C37.9656 24.9688 39.2578 25.8563 39.7109 27.2391C40.3015 29.0923 40.0437 31.3079 38.7265 32.7954C37.6578 34.0204 36.1015 34.6704 34.5468 35.0485C32.4796 35.5095 30.3359 35.5204 28.2374 35.3141C26.264 35.0891 24.2109 34.5704 22.6874 33.2266C21.3843 32.0954 20.7499 30.3329 20.8124 28.6329C20.8281 28.3454 21.114 28.1454 21.3906 28.1688H23.7343C24.0499 28.147 24.2812 28.4188 24.2968 28.7157C24.4421 29.6532 24.7999 30.6688 25.6312 31.2157C27.2343 32.2501 29.2453 32.1782 31.0796 32.2079C32.5999 32.1407 34.3062 32.1204 35.5484 31.1141C36.2046 30.5407 36.3968 29.5829 36.2203 28.7579C36.0281 28.061 35.2828 27.7376 34.6578 27.5079C31.4468 26.4923 27.9624 26.861 24.7828 25.711C23.4921 25.2548 22.2437 24.3923 21.7484 23.0657C21.0562 21.1907 21.3734 18.8673 22.8312 17.4298C24.2374 16.0001 26.2999 15.4485 28.2531 15.2517L28.2812 15.2892Z" fill="#FAFAFA"/>
</g>
</svg>
