<svg width="77" height="21" viewBox="0 0 77 21" fill="none" xmlns="http://www.w3.org/2000/svg">
<path opacity="0.3" fill-rule="evenodd" clip-rule="evenodd" d="M2.44838 14.0756L2.42587 13.7869H-0.00012207L0.0133869 14.1116C0.162549 17.7253 2.61668 20.1198 6.98065 20.1198C11.1431 20.1198 13.9738 17.9724 13.9738 14.7218C13.9738 12.9645 13.3603 11.7206 12.1895 10.8717C11.2889 10.2188 10.2138 9.84956 8.42837 9.46568L8.03604 9.38237L7.64766 9.30132C4.40494 8.62699 3.37713 8.03991 3.37713 6.295C3.37713 4.48986 4.86312 3.33991 7.35665 3.33991C9.77702 3.33991 11.3154 4.8107 11.3868 7.12637L11.3964 7.42863H13.8055L13.7982 7.11004C13.7138 3.50033 11.2754 1.0704 7.33301 1.0704C3.46831 1.07152 0.917364 3.381 0.917364 6.36986C0.917364 8.12266 1.53653 9.34297 2.7028 10.158C3.59552 10.7794 4.63009 11.1093 6.45493 11.4751C6.64128 11.5127 6.82778 11.5494 7.01443 11.5855C8.74076 11.9243 9.50233 12.1337 10.1975 12.535C11.0604 13.0332 11.4882 13.7452 11.4882 14.8468C11.4882 16.7605 9.8682 17.8508 7.03131 17.8508C4.316 17.8508 2.63076 16.4988 2.44838 14.0756ZM19.0436 0.788395V0.476562H16.6497V19.8215H19.0436V16.1712L21.5642 13.7148L26.1584 19.8209H29.136L23.2596 12.0746L28.8635 6.49201H25.6107L25.5189 6.58432L19.0436 13.1109V0.788395ZM41.5811 13.9524H41.8767L41.8952 13.6585C41.9051 13.4999 41.9126 13.3412 41.9177 13.1823L41.9211 12.9628C41.9211 9.02945 39.3066 6.13177 35.4424 6.13177C31.5867 6.13177 28.8388 9.21632 28.8388 13.1131C28.8388 17.123 31.4618 20.1198 35.4678 20.1198C38.496 20.1198 40.8376 18.3287 41.6802 15.6123L41.8063 15.207H39.2959L39.2216 15.4153C38.6925 16.9024 37.2588 17.8891 35.4925 17.8891C33.1847 17.8891 31.5749 16.3091 31.285 13.9535H41.5811V13.9524ZM31.2169 12.083C31.6211 9.93624 33.1628 8.5116 35.2617 8.5116C37.4249 8.5116 38.9182 9.88952 39.2446 12.083H31.2181H31.2169ZM49.6364 8.58647H49.9477V6.46893H47.0303V2.85752H44.6364V6.46949H42.2178V8.58703H44.6364V16.0474C44.6364 18.4948 45.9074 19.8215 48.24 19.8215C48.5919 19.8238 48.9436 19.802 49.2925 19.7562C49.4749 19.7308 49.6004 19.7044 49.6697 19.6852L49.8982 19.6222V17.4045L49.5199 17.4861C49.409 17.5085 49.2975 17.5281 49.1856 17.5446C48.9469 17.5808 48.706 17.6006 48.4645 17.6037C47.4424 17.6037 47.0303 17.1242 47.0303 15.9224V8.58759L49.6364 8.58647ZM57.0619 20.1187C60.3491 20.1187 62.6709 18.0107 63.2535 15.028L63.3267 14.6537H60.9305L60.8697 14.8867C60.3705 16.7892 59.0151 17.8869 57.0613 17.8869C54.6241 17.8869 52.9422 15.9393 52.9422 13.1373C52.9422 10.3134 54.6207 8.36188 57.0613 8.36188C59.0145 8.36188 60.371 9.45949 60.8697 11.362L60.9305 11.595H63.3267L63.2535 11.2207C62.6704 8.23748 60.3491 6.13008 57.0619 6.13008C53.2428 6.13008 50.5427 9.23715 50.5427 13.1367C50.5427 17.015 53.2467 20.1181 57.0619 20.1181V20.1187ZM67.7982 0.787832V0.476562H65.4093V19.8215H67.7982V11.9958C67.7982 9.70715 69.1873 8.36413 71.2947 8.36413C73.3076 8.36413 74.3185 9.53322 74.3185 11.747V19.822H76.7074V11.3963C76.7074 8.26957 74.7767 6.192 71.5936 6.192C69.9613 6.192 68.6385 6.79427 67.7982 7.65772V0.788395V0.787832Z" fill="#FAFAFA"/>
</svg>
