<svg width="120" height="60" viewBox="0 0 120 60" fill="none" xmlns="http://www.w3.org/2000/svg">
<g opacity="0.3">
<path fill-rule="evenodd" clip-rule="evenodd" d="M43.4826 11.9526H51.9646L30.547 48.8605L8.98843 11.9526H17.6634L30.547 34.1719L43.4826 11.9526Z" fill="#FAFAFA"/>
<path fill-rule="evenodd" clip-rule="evenodd" d="M35.4666 11.9448H43.5338L30.5358 34.2104L17.6421 11.9448H25.5832L30.5358 20.5167L35.4666 11.9448Z" fill="#DADADA"/>
<path fill-rule="evenodd" clip-rule="evenodd" d="M57.026 19.2313C57.026 18.959 57.1771 18.7321 57.4794 18.5506C57.7817 18.3691 58.0977 18.2783 58.4275 18.2783C58.8855 18.2783 59.1694 18.4508 59.2794 18.7957L64.116 34.9688L68.9251 18.7957C69.0533 18.4508 69.3281 18.2783 69.7495 18.2783C70.0976 18.2783 70.4228 18.3782 70.725 18.5778C71.0273 18.7775 71.1785 19.0044 71.1785 19.2585C71.1785 19.2767 71.174 19.3039 71.1647 19.3402C71.1555 19.3765 71.151 19.4128 71.151 19.4491L65.5725 37.5554C65.3709 38.0818 64.8855 38.345 64.116 38.345C63.3465 38.345 62.8794 38.0818 62.7145 37.5554L57.0812 19.4491C57.0445 19.3402 57.026 19.2676 57.026 19.2313ZM71.395 33.1716V26.0926C71.395 25.8748 71.5095 25.6842 71.7385 25.5208C71.9675 25.3575 72.2378 25.2758 72.5492 25.2758C72.8423 25.2758 73.1034 25.362 73.3324 25.5344C73.5614 25.7069 73.6759 25.8929 73.6759 26.0926V33.1716C73.6759 33.9884 73.9874 34.7235 74.6103 35.377C75.2332 36.0304 75.9751 36.3572 76.8362 36.3572C77.679 36.3572 78.4117 36.035 79.0346 35.3906C79.6575 34.7462 79.969 34.0065 79.969 33.1716V26.065C79.969 25.8653 80.0835 25.6838 80.3125 25.5204C80.5415 25.3571 80.8117 25.2754 81.1232 25.2754C81.4529 25.2754 81.7232 25.3525 81.9339 25.5068C82.1446 25.6611 82.2499 25.8472 82.2499 26.065V33.1716C82.2499 34.5693 81.714 35.7899 80.6423 36.8337C79.5706 37.8774 78.3018 38.3992 76.8362 38.3992C75.3523 38.3992 74.0745 37.8774 73.0027 36.8337C71.931 35.7899 71.395 34.5693 71.395 33.1716ZM84.1148 33.1171V30.2582C84.1148 28.8605 84.6507 27.6535 85.7224 26.637C86.7942 25.6205 88.0812 25.1123 89.5835 25.1123C91.0125 25.1123 92.2491 25.5887 93.2934 26.5417C94.3376 27.4947 94.8598 28.6881 94.8598 30.1221C94.8598 30.6485 94.7956 31.0705 94.6674 31.3882C94.5392 31.7059 94.3422 31.9328 94.0766 32.0689C93.8109 32.2051 93.5636 32.2913 93.3346 32.3276C93.1056 32.3639 92.7987 32.382 92.414 32.382H86.3956V33.1989C86.3956 34.1972 86.7574 34.9959 87.4811 35.5949C88.2048 36.1939 89.1437 36.4934 90.2979 36.4934C90.9025 36.4934 91.4292 36.4026 91.878 36.2211C92.3268 36.0396 92.6887 35.8626 92.9635 35.6902C93.2383 35.5178 93.4581 35.4316 93.623 35.4316C93.8795 35.4316 94.0993 35.545 94.2826 35.7719C94.4658 35.9988 94.5574 36.2302 94.5574 36.4662C94.5574 36.8837 94.1406 37.3102 93.307 37.7458C92.4734 38.1815 91.4429 38.3993 90.2154 38.3993C88.42 38.3993 86.9544 37.9138 85.8186 36.9426C84.6827 35.9715 84.1148 34.6963 84.1148 33.1171ZM86.3957 30.8573H91.4796C91.9559 30.8573 92.2765 30.7983 92.4415 30.6803C92.6064 30.5623 92.6888 30.3309 92.6888 29.986C92.6888 29.1692 92.3865 28.4522 91.7819 27.835C91.1774 27.2179 90.4354 26.9093 89.556 26.9093C88.6949 26.9093 87.953 27.1952 87.3301 27.7669C86.7072 28.3387 86.3957 29.0421 86.3957 29.877L86.3957 30.8573ZM96.0106 36.9289C96.0106 36.5296 96.148 36.1892 96.4228 35.9079C96.6976 35.6265 97.0365 35.4859 97.4396 35.4859C97.8243 35.4859 98.1541 35.6265 98.4289 35.9079C98.7037 36.1892 98.8411 36.5296 98.8411 36.9289C98.8411 37.3101 98.7037 37.6414 98.4289 37.9227C98.1541 38.2041 97.8243 38.3447 97.4396 38.3447C97.0365 38.3447 96.6976 38.2041 96.4228 37.9227C96.148 37.6414 96.0106 37.3101 96.0106 36.9289ZM98.0407 43.4363C98.0407 43.1459 98.1323 42.9054 98.3155 42.7148C98.4987 42.5242 98.7186 42.4289 98.9751 42.4289C99.6896 42.4289 100.157 42.1657 100.377 41.6393C100.596 41.113 100.706 40.3234 100.706 39.2706V26.0652C100.706 25.8292 100.812 25.6386 101.022 25.4934C101.233 25.3482 101.503 25.2756 101.833 25.2756C102.163 25.2756 102.438 25.3482 102.657 25.4934C102.877 25.6386 102.987 25.8292 102.987 26.0652V39.2706C102.987 40.8498 102.676 42.1022 102.053 43.028C101.43 43.9537 100.487 44.4166 99.2224 44.4166C98.4347 44.4166 98.0407 44.0898 98.0407 43.4363ZM100.404 20.4291C100.404 20.0842 100.541 19.7847 100.816 19.5306C101.091 19.2764 101.43 19.1494 101.833 19.1494C102.218 19.1494 102.548 19.2764 102.822 19.5306C103.097 19.7847 103.235 20.0842 103.235 20.4291C103.235 20.7739 103.097 21.078 102.822 21.3412C102.548 21.6044 102.218 21.736 101.833 21.736C101.448 21.736 101.114 21.6044 100.83 21.3412C100.546 21.078 100.404 20.7739 100.404 20.4291ZM104.688 36.3297C104.688 36.0937 104.765 35.8623 104.921 35.6354C105.077 35.4086 105.265 35.2951 105.484 35.2951C105.631 35.2951 105.842 35.404 106.117 35.6218C106.391 35.8397 106.785 36.0529 107.298 36.2617C107.811 36.4704 108.416 36.5748 109.112 36.5748C110.028 36.5748 110.692 36.4114 111.104 36.0847C111.516 35.758 111.723 35.3496 111.723 34.8595C111.723 34.2604 111.494 33.784 111.036 33.43C110.577 33.076 110.019 32.8083 109.359 32.6268C108.7 32.4453 108.04 32.2456 107.381 32.0278C106.721 31.81 106.162 31.4469 105.704 30.9387C105.246 30.4304 105.017 29.7588 105.017 28.9238C105.017 27.8892 105.388 26.9952 106.13 26.242C106.872 25.4887 108.003 25.112 109.524 25.112C110.495 25.112 111.384 25.2618 112.19 25.5613C112.996 25.8608 113.399 26.2011 113.399 26.5823C113.399 26.8001 113.312 27.0451 113.138 27.3174C112.964 27.5897 112.748 27.7258 112.492 27.7258C112.419 27.7258 112.066 27.5942 111.434 27.331C110.802 27.0678 110.174 26.9362 109.551 26.9362C108.709 26.9362 108.081 27.1314 107.669 27.5216C107.257 27.9119 107.051 28.3521 107.051 28.8422C107.051 29.3504 107.28 29.7498 107.738 30.0402C108.196 30.3306 108.759 30.5575 109.428 30.7209C110.097 30.8842 110.761 31.0839 111.42 31.3199C112.08 31.5559 112.638 31.9597 113.096 32.5315C113.555 33.1033 113.784 33.8429 113.784 34.7505C113.784 35.8759 113.38 36.7654 112.574 37.4188C111.768 38.0723 110.642 38.399 109.194 38.399C107.948 38.399 106.886 38.1766 106.007 37.7319C105.127 37.2872 104.688 36.8198 104.688 36.3297Z" fill="#FAFAFA"/>
</g>
</svg>
